<svg width="56" height="35" viewBox="0 0 56 35" fill="none" xmlns="http://www.w3.org/2000/svg">
<path d="M38.6532 34.3291H17.0692C7.82462 34.3291 0.330566 26.835 0.330566 17.5905C0.330566 8.34593 7.82462 0.851875 17.0692 0.851875H38.6532C47.8977 0.851875 55.3918 8.34593 55.3918 17.5905C55.3918 26.835 47.8977 34.3291 38.6532 34.3291Z" fill="#024936"/>
<path d="M30.9766 22.2256H16.9219C16.6633 22.2256 16.4325 22.0639 16.344 21.8208L12.8152 12.1C12.7815 12.0073 12.7707 11.9078 12.7836 11.81C12.7965 11.7122 12.8328 11.6189 12.8894 11.5381C12.9461 11.4572 13.0213 11.3913 13.1088 11.3457C13.1964 11.3001 13.2936 11.2763 13.3923 11.2763H33.6389C33.8019 11.2763 33.9581 11.341 34.0733 11.4562C34.1885 11.5714 34.2532 11.7277 34.2532 11.8906C34.2532 12.0535 34.1885 12.2097 34.0733 12.3249C33.9581 12.4401 33.8019 12.5049 33.6389 12.5049H14.2688L17.3518 20.9966H30.6176L37.0664 9.54565C37.1752 9.35227 37.3796 9.2329 37.6016 9.2329H44.8657C45.0286 9.2329 45.1849 9.29761 45.3001 9.41281C45.4153 9.52801 45.48 9.68425 45.48 9.84716C45.48 10.0101 45.4153 10.1663 45.3001 10.2815C45.1849 10.3967 45.0286 10.4614 44.8657 10.4614H37.9602L31.5118 21.9128C31.4584 22.0078 31.3806 22.0867 31.2866 22.1417C31.1925 22.1967 31.0856 22.2256 30.9766 22.2256Z" fill="#F2E8D1"/>
<path d="M43.2532 14.0681H37.9281C37.768 14.0639 37.616 13.9973 37.5043 13.8825C37.3926 13.7678 37.3301 13.614 37.3301 13.4539C37.3301 13.2938 37.3926 13.14 37.5043 13.0252C37.616 12.9105 37.768 12.8439 37.9281 12.8396H43.2532C43.3352 12.8374 43.4169 12.8517 43.4933 12.8816C43.5698 12.9114 43.6395 12.9563 43.6983 13.0136C43.7571 13.0708 43.8038 13.1393 43.8358 13.2149C43.8677 13.2905 43.8841 13.3718 43.8841 13.4539C43.8841 13.536 43.8677 13.6172 43.8358 13.6928C43.8038 13.7684 43.7571 13.8369 43.6983 13.8942C43.6395 13.9514 43.5698 13.9963 43.4933 14.0262C43.4169 14.0561 43.3352 14.0703 43.2532 14.0681Z" fill="#F2E8D1"/>
<path d="M41.3786 17.0864H36.0539C35.891 17.0864 35.7347 17.0217 35.6194 16.9064C35.5042 16.7912 35.4395 16.6349 35.4395 16.4719C35.4395 16.309 35.5042 16.1527 35.6194 16.0374C35.7347 15.9222 35.891 15.8575 36.0539 15.8575H41.3786C41.5415 15.8575 41.6978 15.9222 41.8131 16.0374C41.9283 16.1527 41.9931 16.309 41.9931 16.4719C41.9931 16.6349 41.9283 16.7912 41.8131 16.9064C41.6978 17.0217 41.5415 17.0864 41.3786 17.0864Z" fill="#F2E8D1"/>
<ellipse cx="2.22425" cy="2.22403" rx="2.22425" ry="2.22403" transform="matrix(1 0 0 -1 17.5459 27.2412)" fill="#F2E8D1"/>
<ellipse cx="2.22425" cy="2.22403" rx="2.22425" ry="2.22403" transform="matrix(1 0 0 -1 26.0898 27.2412)" fill="#F2E8D1"/>
</svg>
