<svg width="673" height="285" viewBox="0 0 673 285" fill="none" xmlns="http://www.w3.org/2000/svg">
<path d="M150.112 179.905H106.953C110.792 174.793 111.264 169.178 111.252 163.418C111.23 150.387 111.271 137.38 111.223 124.374C111.214 122.118 111.005 119.838 110.661 117.606C110.184 114.486 109.051 111.679 105.552 110.887C101.867 110.023 98.6746 111.055 96.2032 113.958C93.7486 116.838 92.6254 120.438 92.5871 124.038C92.4171 139.156 92.4674 154.275 92.6781 169.393C92.726 172.993 93.8875 176.497 96.7852 179.737H53.703C57.6544 174.505 57.8747 168.53 57.8508 162.482C57.7981 149.763 57.8603 137.068 57.8124 124.349C57.8053 122.094 57.6831 119.814 57.3024 117.582C56.742 114.343 55.5422 111.367 51.7225 110.767C47.8142 110.143 44.5549 111.367 42.2679 114.678C39.6768 118.446 38.999 122.814 38.9488 127.205C38.8099 140.356 38.8434 153.507 38.932 166.682C38.9631 171.241 39.8971 175.657 43.1516 179.737H0.182006C4.04719 174.673 4.37526 168.866 4.36329 162.962C4.32497 143.74 4.32497 124.542 4.36329 105.319C4.37526 99.5358 3.94421 93.8964 0 88.4968C11.2315 88.4968 21.862 88.4249 32.49 88.5449C35.2656 88.5929 37.1862 90.2727 38.0938 93.0564C38.6685 94.8323 38.6901 96.6081 38.8913 98.4079C39.1188 100.424 37.7801 103.52 39.7773 104.215C42.414 105.127 43.6617 101.936 44.9692 100.064C51.4519 90.8247 60.0635 85.953 71.4962 86.6009C80.1821 87.1049 86.1763 91.3766 89.517 99.4639C90.2785 101.312 89.9648 104.119 92.5895 104.527C95.4872 105.007 96.6846 102.344 98.052 100.448C103.083 93.4644 109.212 88.3768 118.06 86.8889C131.454 84.6571 140.782 90.5606 144.108 103.759C145.342 108.631 145.723 113.574 145.723 118.59C145.73 134.165 145.758 149.739 145.782 165.338C145.79 170.378 146.537 175.225 150.112 179.905ZM249.953 88.4727C261.271 88.4727 271.779 88.3768 282.29 88.5208C286.541 88.5687 288.279 91.6166 288.78 95.3843C289.077 97.6161 288.923 99.8958 289.017 102.176C289.053 103.04 288.828 104.119 289.941 104.479C290.933 104.791 291.74 104.119 292.307 103.471C294.271 101.168 296.079 98.744 298.052 96.4642C305.862 87.441 315.762 84.8011 327.07 87.5608C333.945 89.2647 337.83 94.3522 340.109 100.88C341.75 105.559 343.714 105.919 346.894 102.176C348.654 100.088 350.16 97.8079 351.99 95.7921C359.917 87.1528 369.829 84.6092 380.833 87.705C390.431 90.3927 393.513 98.5278 395.007 107.431C396.473 116.142 395.743 124.926 395.853 133.685C395.98 143.98 395.886 154.275 395.896 164.546C395.898 169.873 396.392 175.081 400.254 179.809H357.321C362.64 172.177 361.246 163.514 361.342 155.115C361.457 144.964 361.397 134.837 361.346 124.709C361.334 122.43 361.176 120.15 360.846 117.918C360.331 114.462 359.124 111.391 355.103 110.743C351.183 110.143 348.01 111.511 345.701 114.798C343.728 117.606 342.717 120.87 342.686 124.158C342.528 139.132 342.526 154.107 342.758 169.082C342.813 172.777 343.814 176.521 347.074 179.809H303.745C307.394 174.961 307.974 169.634 307.964 164.162C307.936 150.843 307.974 137.548 307.938 124.229C307.931 122.118 307.859 119.982 307.497 117.894C306.908 114.511 305.78 111.343 301.714 110.743C297.597 110.167 294.285 111.583 292.063 115.158C289.759 118.878 289.101 123.102 289.062 127.325C288.945 140.332 288.966 153.339 289.041 166.346C289.069 171.073 289.903 175.633 293.402 179.809H250.25C253.986 174.841 254.489 169.37 254.479 163.73C254.455 144.82 254.465 125.909 254.474 106.999C254.479 100.664 254.618 94.3042 249.953 88.4727ZM441.263 130.925C441.263 137.092 441.232 141.796 441.27 146.476C441.301 150.411 441.787 154.347 443.181 158.019C444.687 162.002 447.089 165.218 451.845 165.53C456.781 165.89 460.771 164.114 463.319 159.818C464.451 157.923 465.282 155.739 465.804 153.579C468.412 142.708 467.988 131.693 466.894 120.702C466.441 116.166 465.218 111.823 462.964 107.815C460.16 102.8 454.757 99.6559 450.044 100.304C445.973 100.88 443.241 104.719 442.031 111.175C440.71 118.23 441.509 125.333 441.263 130.925ZM441.519 167.09C440.432 179.785 440.154 180.049 427.919 180.049H402.419C406.936 173.905 406.725 167.138 406.72 160.394C406.692 132.269 406.682 104.119 406.735 75.9938C406.742 71.1463 405.904 67.0186 400.765 64.9548C398.377 63.9949 398.834 62.3631 400.82 61.4512C411.771 56.4837 422.466 50.8201 434.172 47.7244C439.692 46.2846 441.22 47.7004 441.232 53.5558C441.258 66.5627 441.22 79.5697 441.27 92.5765C441.275 93.9684 440.556 95.7921 442.515 96.512C444.029 97.0639 445.111 96.0081 446.016 95.0002C458.261 81.3454 482.034 84.4413 492.377 101.264C504.813 121.494 506.07 142.9 495.239 164.21C489.594 175.321 479.804 181.176 467.129 181.92C457.99 182.472 451.141 178.657 445.734 171.577C444.606 170.114 443.904 168.17 441.519 167.09ZM207.371 140.02H207.491C207.491 136.565 207.561 133.085 207.467 129.605C207.393 126.821 208.104 123.534 205.058 121.854C201.878 120.102 198.889 121.83 196.169 123.39C194.509 124.373 192.936 125.694 191.729 127.181C184.647 135.965 183.27 145.972 186.094 156.603C187.662 162.53 192.349 165.746 197.716 165.362C202.826 165.002 206.773 160.85 207.295 154.491C207.69 149.715 207.371 144.844 207.371 140.02ZM246.792 180.049C235.869 180.049 225.907 180.001 215.942 180.073C211.768 180.097 209.22 178.513 208.035 174.265C206.598 169.129 204.469 168.554 200.307 172.153C194.852 176.881 189.104 180.84 181.723 181.752C162.855 184.032 150.455 170.305 154.32 151.467C157.112 137.884 165.602 128.741 177.173 122.046C184.401 117.87 192.208 115.134 200.338 113.335C203.973 112.519 207.441 111.655 207.513 106.735C207.599 100.424 205.197 95.9602 200.367 94.4244C194.586 92.6005 189.703 94.7122 185.246 98.1918C180.67 101.744 177.322 106.471 173.816 111.007C171.61 113.887 169.608 116.934 166.691 119.19C165.216 120.318 163.621 121.134 161.684 120.198C159.801 119.286 159.22 117.702 159.229 115.758C159.241 113.167 159.517 110.551 159.143 108.031C157.998 100.184 161.77 95.1442 168.471 92.2885C186.182 84.7291 204.294 83.4334 221.836 92.1446C235.956 99.1519 242.251 111.679 242.357 127.349C242.438 139.756 242.362 152.163 242.388 164.57C242.395 169.874 242.747 175.105 246.792 180.049ZM571.29 148.107C571.017 142.228 570.892 136.636 569.891 131.117C567.774 119.454 565.095 107.983 557.486 98.4799C551.636 91.1605 545.393 92.0965 541.669 100.616C540.948 102.272 540.354 103.999 539.947 105.751C537.071 118.086 538.101 130.373 540.625 142.612C542.742 152.883 545.594 162.89 552.464 171.121C558.325 178.129 564.374 177.097 567.98 168.722C570.859 162.05 570.974 154.923 571.29 148.107ZM601.893 133.109C601.795 159.938 579.779 182.064 553.252 181.944C527.774 181.824 507.708 161.186 507.914 135.293C508.123 108.703 530.1 86.6249 556.349 86.6009C581.729 86.6009 601.981 107.287 601.893 133.109Z" fill="#ED7400"/>
<path d="M435.958 230.065H436.039C436.039 227.754 436.085 225.426 436.023 223.099C435.973 221.237 436.449 219.038 434.411 217.914C432.284 216.742 430.285 217.898 428.465 218.941C427.355 219.599 426.302 220.482 425.495 221.478C420.758 227.353 419.837 234.046 421.726 241.157C422.775 245.122 425.91 247.273 429.5 247.016C432.918 246.776 435.558 243.999 435.907 239.745C436.171 236.55 435.958 233.292 435.958 230.065ZM462.327 256.84C455.021 256.84 448.357 256.808 441.692 256.856C438.899 256.872 437.195 255.813 436.402 252.972C435.441 249.536 434.017 249.151 431.233 251.559C427.584 254.721 423.739 257.37 418.803 257.98C406.181 259.505 397.887 250.323 400.472 237.722C402.34 228.637 408.019 222.521 415.759 218.042C420.593 215.249 425.815 213.419 431.254 212.215C433.685 211.67 436.005 211.092 436.053 207.801C436.111 203.579 434.504 200.594 431.273 199.566C427.406 198.347 424.14 199.759 421.159 202.087C418.098 204.462 415.858 207.625 413.513 210.658C412.038 212.585 410.699 214.623 408.748 216.132C407.761 216.887 406.694 217.432 405.398 216.806C404.139 216.196 403.75 215.137 403.756 213.837C403.764 212.103 403.948 210.353 403.699 208.668C402.933 203.419 405.456 200.048 409.938 198.138C421.785 193.081 433.9 192.215 445.634 198.042C455.078 202.729 459.29 211.108 459.36 221.59C459.415 229.889 459.363 238.188 459.381 246.487C459.386 250.034 459.621 253.534 462.327 256.84Z" fill="#ED7400"/>
<path d="M490.255 228.146C490.255 224.02 490.234 220.874 490.26 217.744C490.28 215.112 490.604 212.479 491.532 210.023C492.535 207.358 494.135 205.207 497.302 204.999C500.589 204.758 503.246 205.946 504.943 208.819C505.697 210.087 506.251 211.548 506.599 212.993C508.335 220.264 508.053 227.632 507.324 234.984C507.023 238.018 506.208 240.923 504.707 243.604C502.84 246.959 499.242 249.062 496.103 248.628C493.392 248.243 491.572 245.675 490.767 241.357C489.886 236.637 490.419 231.886 490.255 228.146ZM490.425 203.955C489.701 195.464 489.516 195.287 481.368 195.287H464.387C467.395 199.397 467.254 203.923 467.251 208.434C467.232 227.247 467.226 246.076 467.261 264.889C467.265 268.132 466.707 270.893 463.285 272.273C461.695 272.915 461.999 274.007 463.322 274.617C470.615 277.939 477.737 281.728 485.533 283.798C489.209 284.761 490.226 283.814 490.234 279.898C490.252 271.198 490.226 262.497 490.26 253.797C490.263 252.866 489.784 251.646 491.089 251.165C492.097 250.795 492.818 251.502 493.421 252.176C501.575 261.309 517.407 259.239 524.295 247.986C532.577 234.454 533.414 220.136 526.2 205.882C522.441 198.449 515.922 194.533 507.48 194.035C501.395 193.666 496.833 196.218 493.232 200.954C492.481 201.933 492.014 203.233 490.425 203.955Z" fill="#ED7400"/>
<path d="M559.151 228.146C559.151 224.02 559.13 220.874 559.156 217.744C559.177 215.112 559.5 212.479 560.429 210.023C561.432 207.358 563.031 205.207 566.199 204.999C569.486 204.758 572.142 205.946 573.839 208.819C574.594 210.087 575.147 211.548 575.495 212.993C577.232 220.264 576.949 227.632 576.22 234.984C575.919 238.018 575.104 240.923 573.603 243.604C571.736 246.959 568.138 249.062 564.999 248.628C562.288 248.243 560.468 245.675 559.663 241.357C558.783 236.637 559.315 231.886 559.151 228.146ZM559.322 203.955C558.598 195.464 558.413 195.287 550.265 195.287H533.283C536.291 199.397 536.151 203.923 536.147 208.434C536.128 227.247 536.122 246.076 536.157 264.889C536.162 268.132 535.604 270.893 532.181 272.273C530.591 272.915 530.896 274.007 532.218 274.617C539.511 277.939 546.633 281.728 554.429 283.798C558.105 284.761 559.122 283.814 559.13 279.898C559.148 271.198 559.122 262.497 559.156 253.797C559.159 252.866 558.681 251.646 559.985 251.165C560.993 250.795 561.714 251.502 562.317 252.176C570.471 261.309 586.303 259.239 593.191 247.986C601.473 234.454 602.31 220.136 595.097 205.882C591.338 198.449 584.818 194.533 576.377 194.035C570.291 193.666 565.73 196.218 562.129 200.954C561.377 201.933 560.91 203.233 559.322 203.955Z" fill="#ED7400"/>
<path d="M633.096 91.74C647.433 99.1851 664.192 87.1584 661.454 71.3852C660.368 65.1093 662.468 58.714 667.075 54.2756C678.677 43.1079 672.276 23.6359 656.244 21.3451C649.876 20.4145 644.374 16.4772 641.525 10.774C634.356 -3.59133 613.639 -3.59133 606.473 10.774C603.626 16.4772 598.124 20.4145 591.756 21.3451C575.724 23.6359 569.323 43.1079 580.925 54.2756C585.529 58.714 587.632 65.1093 586.546 71.3852C583.805 87.1584 600.565 99.1851 614.904 91.74C617.709 90.2824 620.831 89.5208 624 89.5208C627.169 89.5208 630.291 90.2824 633.096 91.74Z" fill="#024936"/>
</svg>
