<?xml version="1.0" encoding="UTF-8"?><svg id="a" xmlns="http://www.w3.org/2000/svg" viewBox="0 0 174.5 169.37"><path d="M103.45,165.3h0c25.53,13.42,55.37-8.26,50.5-36.69-1.94-11.29,1.81-22.81,10.01-30.81h0c20.66-20.13,9.26-55.22-19.29-59.36-11.34-1.65-21.13-8.77-26.2-19.04h0c-12.77-25.87-49.65-25.87-62.42,0h0c-5.07,10.27-14.87,17.39-26.2,19.04h0C1.29,42.59-10.11,77.67,10.55,97.8h0c8.2,8,11.95,19.52,10.01,30.81-4.88,28.43,24.96,50.11,50.5,36.69,10.14-5.33,22.25-5.33,32.39,0" style="fill:#ed7400;"/><path d="M128.12,118.27h-23.5c2.09-2.78,2.35-5.84,2.34-8.97-.01-7.07,.01-14.14-.02-21.21,0-1.23-.12-2.46-.31-3.68-.26-1.69-.88-3.22-2.78-3.66-2.01-.46-3.74,.1-5.09,1.68-1.34,1.57-1.95,3.52-1.97,5.47-.09,8.22-.07,16.43,.05,24.65,.03,1.95,.66,3.86,2.24,5.62h-23.46c2.15-2.85,2.27-6.09,2.26-9.38-.03-6.91,0-13.81-.02-20.72,0-1.23-.07-2.47-.28-3.68-.31-1.77-.96-3.38-3.04-3.7-2.13-.34-3.9,.32-5.15,2.12-1.41,2.04-1.78,4.42-1.81,6.8-.08,7.15-.06,14.3,0,21.45,.02,2.48,.52,4.87,2.3,7.1h-23.4c2.11-2.76,2.28-5.91,2.28-9.12-.02-10.44-.02-20.88,0-31.32,0-3.14-.23-6.21-2.38-9.14,6.12,0,11.9-.04,17.69,.03,1.51,.02,2.56,.93,3.05,2.45,.31,.96,.32,1.93,.43,2.91,.12,1.09-.61,2.78,.48,3.15,1.44,.5,2.12-1.24,2.83-2.25,3.53-5.02,8.22-7.67,14.45-7.32,4.73,.27,7.99,2.6,9.81,6.99,.41,1,.24,2.53,1.67,2.76,1.58,.25,2.23-1.19,2.97-2.22,2.74-3.79,6.08-6.57,10.9-7.37,7.29-1.22,12.37,2,14.18,9.16,.67,2.65,.88,5.34,.88,8.06,0,8.47,.02,16.93,.03,25.4,0,2.74,.41,5.38,2.36,7.92" style="fill:#f2e8d1;"/></svg>