<?xml version="1.0" encoding="UTF-8"?><svg id="a" xmlns="http://www.w3.org/2000/svg" viewBox="0 0 125 76"><rect x="0" y="0" width="125" height="76" rx="38" ry="38" style="fill:#024936;"/><path d="M79.69,36.85c-.92,0-1.52,.6-1.52,1.58v21.97h-10.83v-8.91c0-.79-.61-1.58-1.36-1.58h-7.82c-.9,0-1.66,.79-1.66,1.58v8.91h-10.69v-21.18c0-.98-.75-1.58-1.5-1.58-.9,0-1.5,.6-1.5,1.58v22.96c0,.79,.6,1.59,1.5,1.59h13.85c.75,0,1.35-.8,1.35-1.59v-9.1h4.82v9.1c0,.79,.76,1.59,1.66,1.59h13.71c.75,0,1.5-.8,1.5-1.59v-23.75c0-.98-.75-1.58-1.5-1.58h0Zm8.27,1.19h0c-9.94-10.69-16.11-17.22-24.99-26.52-.29-.39-.6-.59-.9-.59-.45,0-.91,.19-1.2,.59l-24.85,26.33c-.29,.4-.45,.79-.45,1.19s.15,.79,.45,.98c.61,.79,1.5,.79,2.12,0L62.07,14.88l23.79,25.52c.15,.2,.6,.4,1.06,.4s.75-.19,1.04-.4c.61-.59,.61-1.77,0-2.37h0Z" style="fill:#f2e8d1; fill-rule:evenodd;"/></svg>