<?xml version="1.0" encoding="UTF-8"?><svg id="a" xmlns="http://www.w3.org/2000/svg" viewBox="0 0 125 76"><rect x="0" y="0" width="125" height="76" rx="38" ry="38" style="fill:#024936;"/><path d="M83.13,54.29l-12.05-12.05c-.63-.63-1.46-.91-2.28-.87l-2.56-2.56c3.92-5.29,3.49-12.81-1.3-17.61-5.28-5.28-13.86-5.28-19.14,0-5.28,5.28-5.28,13.86,0,19.14,4.79,4.79,12.31,5.22,17.61,1.3l2.56,2.56c-.04,.82,.24,1.66,.87,2.28l12.05,12.05c1.17,1.17,3.08,1.17,4.25,0,1.17-1.17,1.17-3.08,0-4.25Zm-21.03-16.78c-3.71,3.71-9.76,3.71-13.47,0-3.71-3.71-3.71-9.76,0-13.47,3.71-3.71,9.76-3.71,13.47,0,3.71,3.71,3.71,9.76,0,13.47Z" style="fill:#f2e8d1;"/></svg>